<?xml version="1.0" encoding="UTF-8" standalone="no"?>
<svg
   xmlns:dc="http://purl.org/dc/elements/1.1/"
   xmlns:cc="http://creativecommons.org/ns#"
   xmlns:rdf="http://www.w3.org/1999/02/22-rdf-syntax-ns#"
   xmlns:svg="http://www.w3.org/2000/svg"
   xmlns="http://www.w3.org/2000/svg"
   xmlns:sodipodi="http://sodipodi.sourceforge.net/DTD/sodipodi-0.dtd"
   xmlns:inkscape="http://www.inkscape.org/namespaces/inkscape"
   width="20"
   height="20"
   viewBox="0 0 5.2916667 5.2916667"
   version="1.1"
   id="svg8"
   inkscape:version="1.0.1 (3bc2e813f5, 2020-09-07)"
   sodipodi:docname="cart.svg">
  <defs
     id="defs2" />
  <sodipodi:namedview
     id="base"
     pagecolor="#ffffff"
     bordercolor="#666666"
     borderopacity="1.0"
     inkscape:pageopacity="0.0"
     inkscape:pageshadow="2"
     inkscape:zoom="31.678384"
     inkscape:cx="9.8719385"
     inkscape:cy="12.058311"
     inkscape:document-units="mm"
     inkscape:current-layer="layer1"
     inkscape:document-rotation="0"
     showgrid="false"
     units="px"
     inkscape:window-width="1710"
     inkscape:window-height="1030"
     inkscape:window-x="60"
     inkscape:window-y="0"
     inkscape:window-maximized="0" />
  <metadata
     id="metadata5">
    <rdf:RDF>
      <cc:Work
         rdf:about="">
        <dc:format>image/svg+xml</dc:format>
        <dc:type
           rdf:resource="http://purl.org/dc/dcmitype/StillImage" />
        <dc:title></dc:title>
      </cc:Work>
    </rdf:RDF>
  </metadata>
  <g
     inkscape:label="Слой 1"
     inkscape:groupmode="layer"
     id="layer1">
    <path
       style="fill:none;stroke:#000000;stroke-width:0.407363px;stroke-linecap:butt;stroke-linejoin:miter;stroke-opacity:1"
       d="M 1.0782838,3.7626233 4.2031043,3.724046 4.2288212,2.0523314 1.4383439,2.0909086 0.57676783,0.4449126 4.8975071,0.40633445 4.4345709,1.9751748 4.3959936,3.904076 1.078283,3.9426534 Z"
       id="path10"
       sodipodi:nodetypes="cccccccccc" />
    <circle
       style="fill:#550000;stroke-width:0.407363"
       id="path12"
       cx="1.6955322"
       cy="4.5984802"
       r="0.46293634" />
    <ellipse
       style="fill:#550000;stroke-width:0.407363"
       id="path14"
       cx="4.0166435"
       cy="4.5663328"
       rx="0.4565067"
       ry="0.44364733" />
    <path
       style="fill:#ff9955;stroke-width:0.0315673"
       d="M 6.1312173,19.093773 C 5.2949671,18.933062 4.6791231,18.205134 4.6791231,17.377396 c 0,-0.982869 0.8797821,-1.802236 1.8512591,-1.724132 0.7247794,0.05827 1.3368019,0.559895 1.5451165,1.266406 0.034181,0.115926 0.055846,0.293497 0.055846,0.457726 0,0.934381 -0.7252182,1.690023 -1.652887,1.722228 -0.147577,0.0051 -0.303835,0.0025 -0.34724,-0.0059 z"
       id="path16"
       transform="scale(0.26458333)" />
    <path
       style="fill:#ff9955;stroke-width:0.0315673"
       d="m 14.812216,18.874738 c -0.581376,-0.125899 -1.091544,-0.587643 -1.263157,-1.143259 -0.06975,-0.225813 -0.08287,-0.622693 -0.02841,-0.85916 0.09319,-0.404639 0.451094,-0.860787 0.83384,-1.062737 0.680516,-0.359064 1.499684,-0.237813 2.039355,0.301857 0.825128,0.825128 0.579234,2.143691 -0.492558,2.641257 -0.366191,0.169999 -0.696625,0.207028 -1.08907,0.122042 z"
       id="path18"
       transform="scale(0.26458333)" />
    <path
       style="fill:#ff9955;stroke-width:0.0315673"
       d="m 3.3217306,14.577201 v -1.103873 l 1.7756587,-0.02064 c 6.0462157,-0.07027 10.0168117,-0.124797 10.0304987,-0.137737 0.01977,-0.0187 0.09359,-4.7552787 0.07442,-4.7751326 -0.0077,-0.00799 -2.303349,0.016821 -5.10141,0.055132 -2.8667873,0.039253 -5.0993166,0.057725 -5.1147214,0.04232 C 4.9627496,8.6138434 1.0047071,1.0713592 0.96523596,0.97492656 0.94959529,0.93671462 0.78241693,0.93876383 12.456802,0.83406734 c 3.869716,-0.0347038 7.040588,-0.0583579 7.046381,-0.0525646 0.0058,0.005793 -0.437826,1.52266566 -0.98582,3.37082766 l -0.996354,3.3602943 -0.08226,3.9961873 -0.08226,3.996187 -2.037642,0.02148 c -1.120703,0.01182 -3.145653,0.03479 -4.499888,0.05105 -1.3542363,0.01626 -3.2648451,0.03722 -4.2457979,0.04658 -0.9809528,0.0094 -2.1138231,0.026 -2.5174896,0.03699 l -0.7339389,0.01998 z M 11.980699,7.0567311 c 2.298003,-0.0312 4.109277,-0.068078 4.124318,-0.083974 0.02101,-0.022204 1.390417,-4.6175668 1.390417,-4.6658663 0,-0.00666 -0.436813,-0.0059 -0.970694,0.00169 -1.426994,0.020284 -11.3836508,0.1061429 -12.2954505,0.1060263 -0.5539536,-6.95e-5 -0.7812899,0.01015 -0.7812899,0.035125 0,0.019373 0.5488479,1.083912 1.219662,2.3656412 l 1.219662,2.3304169 0.9979385,-0.016716 c 0.5488661,-0.00919 2.8418129,-0.04175 5.0954369,-0.072347 z"
       id="path20"
       transform="scale(0.26458333)" />
  </g>
</svg>
