<?xml version="1.0" encoding="UTF-8" standalone="no"?>
<svg
   xmlns:dc="http://purl.org/dc/elements/1.1/"
   xmlns:cc="http://creativecommons.org/ns#"
   xmlns:rdf="http://www.w3.org/1999/02/22-rdf-syntax-ns#"
   xmlns:svg="http://www.w3.org/2000/svg"
   xmlns="http://www.w3.org/2000/svg"
   xmlns:sodipodi="http://sodipodi.sourceforge.net/DTD/sodipodi-0.dtd"
   xmlns:inkscape="http://www.inkscape.org/namespaces/inkscape"
   width="10mm"
   height="10mm"
   viewBox="0 0 10 10"
   version="1.1"
   id="svg8"
   inkscape:version="1.0.1 (3bc2e813f5, 2020-09-07)"
   sodipodi:docname="cartImgf1.svg">
  <defs
     id="defs2" />
  <sodipodi:namedview
     id="base"
     pagecolor="#ffffff"
     bordercolor="#666666"
     borderopacity="1.0"
     inkscape:pageopacity="0.0"
     inkscape:pageshadow="2"
     inkscape:zoom="11.2"
     inkscape:cx="41.531933"
     inkscape:cy="20.892857"
     inkscape:document-units="mm"
     inkscape:current-layer="layer1"
     inkscape:document-rotation="0"
     showgrid="false"
     inkscape:window-width="1710"
     inkscape:window-height="1030"
     inkscape:window-x="228"
     inkscape:window-y="3"
     inkscape:window-maximized="0" />
  <metadata
     id="metadata5">
    <rdf:RDF>
      <cc:Work
         rdf:about="">
        <dc:format>image/svg+xml</dc:format>
        <dc:type
           rdf:resource="http://purl.org/dc/dcmitype/StillImage" />
        <dc:title></dc:title>
      </cc:Work>
    </rdf:RDF>
  </metadata>
  <g
     inkscape:label="Слой 1"
     inkscape:groupmode="layer"
     id="layer1">
    <path
       style="fill:none;stroke:#000000;stroke-width:0.264583px;stroke-linecap:butt;stroke-linejoin:miter;stroke-opacity:1"
       d="M 3.5435267,3.5435267 C 4.3467262,2.3859747 5.4097843,1.063058 6.7090773,1.8662574 8.0083704,2.6694569 4.9144013,8.6057521 2.9765625,7.8193825 1.3465402,7.157924 3.5435267,3.5435267 3.5435267,3.5435267 Z"
       id="path10"
       sodipodi:nodetypes="cssc" />
    <path
       style="fill:none;stroke:#000000;stroke-width:0.264583px;stroke-linecap:butt;stroke-linejoin:miter;stroke-opacity:1"
       d="M 4.8664434,2.905692 C 5.1499256,2.5277158 6.3547246,3.3072916 6.2129836,3.6380208 6.0712426,3.96875 4.7483259,3.0946801 4.8664434,2.905692 Z"
       id="path12" />
    <path
       style="fill:none;stroke:#000000;stroke-width:0.264583px;stroke-linecap:butt;stroke-linejoin:miter;stroke-opacity:1"
       d="M 4.2619235,3.8519603 C 4.5454057,3.4739841 5.7502047,4.2535599 5.6084637,4.5842891 5.4667227,4.9150184 4.143806,4.0409484 4.2619235,3.8519603 Z"
       id="path12-8" />
    <path
       style="fill:none;stroke:#000000;stroke-width:0.264583px;stroke-linecap:butt;stroke-linejoin:miter;stroke-opacity:1"
       d="M 3.6713357,4.7969008 C 3.9548179,4.4189246 5.1596169,5.1985004 5.0178759,5.5292296 4.8761349,5.8599589 3.5532182,4.9858889 3.6713357,4.7969008 Z"
       id="path12-5" />
    <path
       style="fill:#ffcc00;stroke-width:0.0892857"
       d="m 11.519125,29.055156 c -0.552037,-0.212298 -1.20418,-0.765849 -1.503031,-1.2758 -0.7666048,-1.308112 -0.6115379,-3.698688 0.441226,-6.802116 0.526085,-1.550839 1.050394,-2.777606 1.982219,-4.637954 1.007214,-2.010859 1.410519,-2.675796 2.536372,-4.181761 2.218439,-2.9674316 3.929632,-4.4995925 5.804928,-5.197594 0.846578,-0.3151036 2.078226,-0.3553675 2.849308,-0.093147 0.79643,0.2708409 1.469705,0.644085 1.761678,0.9766232 0.437453,0.4982329 0.515622,0.8489049 0.510579,2.2905218 -0.0039,1.111368 -0.04039,1.439998 -0.25783,2.321428 -1.609379,6.523792 -6.715344,14.191841 -10.790208,16.204547 -1.224389,0.604764 -2.421543,0.746637 -3.335241,0.395252 z m 7.414721,-7.438582 c 0.931265,-0.389107 0.745056,-1.64785 -0.395465,-2.673277 -0.974906,-0.876524 -2.377511,-1.582954 -3.395331,-1.710079 -1.123219,-0.14029 -1.964768,0.430401 -1.808711,1.226565 0.125684,0.641211 1.831299,2.031712 3.385525,2.760047 1.098155,0.514613 1.681637,0.619173 2.213982,0.396744 z m 2.232143,-3.571428 c 0.931265,-0.389108 0.745056,-1.64785 -0.395465,-2.673277 -0.974906,-0.876524 -2.377511,-1.582955 -3.395331,-1.71008 -1.123219,-0.140289 -1.964768,0.430402 -1.808711,1.226566 0.125684,0.64121 1.831299,2.031711 3.385525,2.760047 1.098155,0.514612 1.681636,0.619172 2.213982,0.396744 z m 2.512025,-3.691306 c 0.274155,-0.197537 0.439892,-0.71268 0.362321,-1.126169 -0.258107,-1.375825 -3.364489,-3.3381474 -4.987862,-3.150867 -0.719486,0.083 -1.225897,0.523063 -1.225897,1.065274 0,0.634657 1.404546,1.898508 3.049924,2.744409 1.385716,0.712406 2.259183,0.858119 2.801514,0.467353 z"
       id="path35"
       transform="scale(0.26458333)" />
    <path
       style="fill:#ffcc00;stroke-width:0.0892857"
       d="m 21.92316,13.180521 c -1.068062,-0.45575 -2.923283,-1.778829 -2.79204,-1.991186 0.148705,-0.240609 1.503219,0.237839 2.444041,0.863296 0.573263,0.381104 1.3407,1.129912 1.3407,1.308154 0,0.144724 -0.402274,0.07168 -0.992701,-0.180264 z"
       id="path37"
       transform="scale(0.26458333)" />
    <path
       style="fill:#ffcc00;stroke-width:0.0892857"
       d="m 20.290087,16.992787 c -0.900312,-0.196683 -3.698185,-1.999184 -3.465048,-2.232322 0.149468,-0.149468 1.04609,0.08979 1.816204,0.484646 0.679915,0.348607 1.766095,1.235656 1.962566,1.602766 0.12168,0.227361 0.103062,0.23596 -0.313722,0.14491 z"
       id="path39"
       transform="scale(0.26458333)" />
    <path
       style="fill:#ffcc00;stroke-width:0.0892857"
       d="m 18.057944,20.564215 c -0.900312,-0.196682 -3.698185,-1.999184 -3.465047,-2.232322 0.149467,-0.149467 1.046089,0.08979 1.816204,0.484647 0.679914,0.348607 1.766094,1.235656 1.962565,1.602766 0.12168,0.22736 0.103062,0.23596 -0.313722,0.144909 z"
       id="path41"
       transform="scale(0.26458333)" />
  </g>
</svg>
